<?xml version="1.0" encoding="UTF-8"?>
<svg width="65.516mm" height="62.116mm" version="1.1" viewBox="0 0 65.516 62.116" xmlns="http://www.w3.org/2000/svg" xmlns:cc="http://creativecommons.org/ns#" xmlns:dc="http://purl.org/dc/elements/1.1/" xmlns:rdf="http://www.w3.org/1999/02/22-rdf-syntax-ns#">
  <style>
    path { fill: #EFC88B; }
  </style>
  <metadata>
    <rdf:RDF>
      <cc:Work rdf:about="">
        <dc:format>image/svg+xml</dc:format>
        <dc:type rdf:resource="http://purl.org/dc/dcmitype/StillImage"/>
        <dc:title/>
      </cc:Work>
    </rdf:RDF>
  </metadata>
  <g transform="translate(-25.536 -93.179)">
    <text x="67.279762" y="77.017853" font-family="sans-serif" font-size="10.583px" letter-spacing="0px" stroke-width=".26458" word-spacing="0px" style="line-height:1.25" xml:space="preserve"><tspan x="67.279762" y="86.381622" stroke-width=".26458"/></text>
    <a transform="translate(6.0476 2.2679)"/>
    <a transform="matrix(-1 0 0 1 99.58 2.3595)"/>
    <g>
      <path d="m40.629 93.179c-5.0309 0.02325-10.062 0.04651-15.093 0.06976 8.1442 20.682 16.289 41.364 24.433 62.046 5.5498-1.7e-4 11.1-3.4e-4 16.649-5.1e-4 8.1444-20.682 16.289-41.364 24.433-62.045-5.0309-0.023253-10.062-0.04651-15.093-0.06976-5.8883 14.073-11.777 28.146-17.665 42.219-5.8884-14.073-11.777-28.146-17.665-42.22z"/>
      <path d="m82.475 134.8c-2.6907 6.8328-5.3814 13.666-8.0722 20.498 5.5498 1.8e-4 11.1 3.5e-4 16.649 5.3e-4 -2.859-6.8331-5.7183-13.666-8.5773-20.499z"/>
    </g>
    <a transform="matrix(-1 0 0 1 62.638 3.4941)"/>
    <a transform="translate(47.399 43.748)"/>
  </g>
</svg>
