<?xml version="1.0" encoding="UTF-8" standalone="no"?>
<svg
   xmlns:dc="http://purl.org/dc/elements/1.1/"
   xmlns:cc="http://creativecommons.org/ns#"
   xmlns:rdf="http://www.w3.org/1999/02/22-rdf-syntax-ns#"
   xmlns:svg="http://www.w3.org/2000/svg"
   xmlns="http://www.w3.org/2000/svg"
   id="svg923"
   viewBox="0 0 65.516 62.116"
   version="1.1"
   height="62.116mm"
   width="65.516mm">
  <defs
     id="defs927" />
  <style
     id="style899">
  </style>
  <metadata
     id="metadata901">
    <rdf:RDF>
      <cc:Work
         rdf:about="">
        <dc:format>image/svg+xml</dc:format>
        <dc:type
           rdf:resource="http://purl.org/dc/dcmitype/StillImage" />
        <dc:title></dc:title>
      </cc:Work>
    </rdf:RDF>
  </metadata>
  <g
     id="g921"
     transform="translate(-25.536 -93.179)">
    <text
       stroke-width=".26458"
       font-family="sans-serif"
       id="text905"
       xml:space="preserve"
       style="line-height:1.25"
       word-spacing="0px"
       letter-spacing="0px"
       font-size="10.583px"
       y="77.017853"
       x="67.279762"><tspan
         stroke-width=".26458"
         id="tspan903"
         y="86.381622"
         x="67.279762" /></text>
    <a
       id="a907"
       transform="translate(6.0476 2.2679)" />
    <a
       id="a909"
       transform="matrix(-1 0 0 1 99.58 2.3595)" />
    <path
       id="path911"
       d="m 40.960938,92.677734 -0.333985,0.002 c -5.0309,0.02325 -10.062751,0.04511 -15.09375,0.06836 l -0.730469,0.0039 0.267578,0.679688 c 8.144204,20.682009 16.289598,41.364889 24.433594,62.046879 l 0.125,0.3164 h 17.330078 l 0.125,-0.31836 c 8.144399,-20.68199 16.28764,-41.36392 24.431641,-62.044919 l 0.267578,-0.679688 -0.730469,-0.002 c -5.030899,-0.02325 -10.060796,-0.04706 -15.091796,-0.07031 l -0.335938,-0.002 -0.128906,0.308594 C 69.761436,106.69213 64.027378,120.3977 58.292969,134.10352 52.296092,119.77142 46.215956,105.2412 41.089844,92.986328 Z m -0.664063,1.003907 c 5.239103,12.524929 11.426983,27.312069 17.535156,41.910159 l 0.460938,1.10156 0.460937,-1.10156 c 5.844968,-13.97015 11.69183,-27.93999 17.53711,-41.910159 4.675551,0.02161 9.351871,0.04284 14.027343,0.06445 -8.013251,20.348966 -16.02738,40.698896 -24.041015,61.048826 h -15.96875 c -8.013472,-20.3505 -16.025397,-40.7003 -24.039063,-61.050779 4.676162,-0.02161 9.351277,-0.04089 14.027344,-0.0625 z"
       style="color:#000000;font-style:normal;font-variant:normal;font-weight:normal;font-stretch:normal;font-size:medium;line-height:normal;font-family:sans-serif;font-variant-ligatures:normal;font-variant-position:normal;font-variant-caps:normal;font-variant-numeric:normal;font-variant-alternates:normal;font-feature-settings:normal;text-indent:0;text-align:start;text-decoration:none;text-decoration-line:none;text-decoration-style:solid;text-decoration-color:#000000;letter-spacing:normal;word-spacing:normal;text-transform:none;writing-mode:lr-tb;direction:ltr;text-orientation:mixed;dominant-baseline:auto;baseline-shift:baseline;text-anchor:start;white-space:normal;shape-padding:0;clip-rule:nonzero;display:inline;overflow:visible;visibility:visible;opacity:1;isolation:auto;mix-blend-mode:normal;color-interpolation:sRGB;color-interpolation-filters:linearRGB;solid-color:#000000;solid-opacity:1;vector-effect:none;fill:#111111;fill-opacity:1;fill-rule:nonzero;stroke:none;stroke-width:1;stroke-linecap:butt;stroke-linejoin:miter;stroke-miterlimit:4;stroke-dasharray:none;stroke-dashoffset:0;stroke-opacity:1;color-rendering:auto;image-rendering:auto;shape-rendering:auto;text-rendering:auto;enable-background:accumulate" />
    <path
       id="path913"
       d="m 82.460938,133.4707 -0.451172,1.14649 c -2.690703,6.8328 -5.381475,13.66607 -8.072266,20.49804 l -0.269531,0.6836 h 0.734375 c 5.5498,1.8e-4 11.101391,-1.8e-4 16.65039,0 h 0.75 l -0.289062,-0.69336 c -2.987573,-7.1402 -6.022438,-14.38917 -8.578125,-20.49805 z m 0.02734,2.65625 c 2.374482,5.67559 5.087159,12.16311 7.810547,18.67188 -5.053755,-1.7e-4 -10.109647,1.6e-4 -15.164062,0 2.451096,-6.22348 4.902513,-12.44773 7.353515,-18.67188 z"
       style="color:#000000;font-style:normal;font-variant:normal;font-weight:normal;font-stretch:normal;font-size:medium;line-height:normal;font-family:sans-serif;font-variant-ligatures:normal;font-variant-position:normal;font-variant-caps:normal;font-variant-numeric:normal;font-variant-alternates:normal;font-feature-settings:normal;text-indent:0;text-align:start;text-decoration:none;text-decoration-line:none;text-decoration-style:solid;text-decoration-color:#000000;letter-spacing:normal;word-spacing:normal;text-transform:none;writing-mode:lr-tb;direction:ltr;text-orientation:mixed;dominant-baseline:auto;baseline-shift:baseline;text-anchor:start;white-space:normal;shape-padding:0;clip-rule:nonzero;display:inline;overflow:visible;visibility:visible;opacity:1;isolation:auto;mix-blend-mode:normal;color-interpolation:sRGB;color-interpolation-filters:linearRGB;solid-color:#000000;solid-opacity:1;vector-effect:none;fill:#111111;fill-opacity:1;fill-rule:nonzero;stroke:none;stroke-width:1;stroke-linecap:butt;stroke-linejoin:miter;stroke-miterlimit:4;stroke-dasharray:none;stroke-dashoffset:0;stroke-opacity:1;color-rendering:auto;image-rendering:auto;shape-rendering:auto;text-rendering:auto;enable-background:accumulate" />
    <a
       id="a917"
       transform="matrix(-1 0 0 1 62.638 3.4941)" />
    <a
       id="a919"
       transform="translate(47.399 43.748)" />
  </g>
</svg>
