<svg viewBox="0 0 150 150" xmlns="http://www.w3.org/2000/svg">
	<g transform="translate(-43, -172) scale(2)">
		<path d="M40.629 93.179c-5.0309 0.02325-10.062 0.04651-15.093 0.06976 8.1442 20.682 16.289 41.364 24.433 62.046 5.5498-0.00017 11.1-0.00034 16.649-0.00051 8.1444-20.682 16.289-41.364 24.433-62.045-5.0309-0.023253-10.062-0.04651-15.093-0.06976-5.8883 14.073-11.777 28.146-17.665 42.219-5.8884-14.073-11.777-28.146-17.665-42.22z" fill="#EFC88B" />
		<path d="M82.475 134.8c-2.6907 6.8328-5.3814 13.666-8.0722 20.498 5.5498 0.00018 11.1 0.00035 16.649 0.00053-2.859-6.8331-5.7183-13.666-8.5773-20.499z" fill="#EFC88B" />
	</g>
</svg>
