<svg height="40" width="40" viewBox="0 0 94 63" fill="black" xmlns="http://www.w3.org/2000/svg">
  <path d="M 21.44 43.4 C 21.44 42.67 21.34 41.455 20.478 41.455 C 19.678 41.455 19.563 42.306 19.563 43.043 C 19.563 43.78 19.704 44.954 20.563 44.954 C 21.363 44.954 21.437 44.1 21.437 43.4 L 21.44 43.4 Z M 22.284 48.627 C 22.284 47.827 21.346 47.927 20.865 47.927 C 20.341 47.924 19.824 47.809 19.348 47.59 C 19.263 47.609 19.186 47.651 19.126 47.713 C 18.989 47.877 18.914 48.084 18.914 48.297 C 18.914 49.431 19.914 49.725 20.723 49.725 C 21.295 49.725 22.283 49.471 22.283 48.631 L 22.284 48.627 Z M 18.174 46.476 C 18.09 46.386 17.885 46.212 17.885 46.069 C 17.885 45.816 18.285 45.709 18.433 45.642 L 18.897 45.425 C 18.934 45.425 19.243 45.302 19.243 45.238 C 19.243 45.211 19.112 45.145 19.088 45.145 C 18.703 45.006 18.369 44.752 18.134 44.418 C 17.898 44.083 17.771 43.684 17.77 43.274 C 17.774 42.941 17.854 42.613 18.005 42.317 C 18.156 42.02 18.374 41.762 18.641 41.563 C 19.185 41.183 19.838 40.99 20.501 41.016 C 21.013 41.003 21.521 41.111 21.984 41.33 C 22.17 41.44 22.383 41.498 22.599 41.497 L 23.299 41.497 C 23.649 41.46 23.766 41.46 23.766 41.911 C 23.766 42.275 23.682 42.195 23.376 42.195 L 22.966 42.195 C 22.956 42.208 22.909 42.208 22.909 42.245 C 23.1 42.544 23.202 42.891 23.202 43.245 C 23.174 43.84 22.913 44.401 22.476 44.805 C 22.039 45.21 21.46 45.427 20.865 45.41 L 20.25 45.423 C 20.126 45.423 19.598 45.423 19.598 45.69 C 19.598 45.827 19.798 45.974 19.898 46.014 C 20.126 46.076 20.362 46.1 20.598 46.084 L 21.492 46.084 C 21.977 46.052 22.464 46.122 22.921 46.291 C 23.192 46.424 23.42 46.632 23.576 46.89 C 23.732 47.149 23.811 47.447 23.802 47.749 C 23.781 48.143 23.66 48.526 23.45 48.86 C 23.24 49.195 22.948 49.47 22.602 49.66 C 21.938 50.056 21.174 50.251 20.402 50.22 C 19.511 50.22 17.571 49.993 17.571 48.62 C 17.571 47.553 18.886 47.526 18.886 47.269 C 18.886 47.192 18.686 47.029 18.651 46.992 L 18.174 46.476 Z M 46.056 58.145 C 46.036 58.589 46.049 58.762 45.686 58.999 C 45.012 59.427 44.225 59.643 43.426 59.619 C 42.313 59.654 41.222 59.304 40.336 58.628 C 39.87 58.211 39.496 57.701 39.24 57.13 C 38.983 56.56 38.849 55.942 38.846000000000004 55.316 C 38.843 54.687 38.977 54.064 39.238 53.492 C 39.5 52.919 39.882 52.41 40.359 52 C 41.303 51.263 42.468 50.868 43.665 50.879 C 44.264 50.887 44.858 50.981 45.43 51.159 C 45.746 51.266 45.746 51.316 45.8 51.689 L 45.9 52.376 C 45.927 52.502 45.941 52.631 45.944 52.76 C 45.947 52.79 45.943 52.82 45.932 52.848 C 45.922 52.877 45.906 52.902 45.885 52.924 C 45.864 52.945 45.838 52.962 45.81 52.973 C 45.782 52.984 45.752 52.989 45.722 52.987 C 45.184 52.987 45.144 51.396 43.563 51.396 C 43.165 51.417 42.778 51.538 42.438 51.748 C 42.099 51.958 41.817 52.249 41.619 52.596 C 41.177 53.387 40.955 54.282 40.977 55.188 C 40.96 56.078 41.161 56.959 41.562 57.753 C 41.744 58.136 42.026 58.462 42.378 58.697 C 42.73 58.933 43.139 59.069 43.562 59.091 C 44.021 59.081 44.46 58.9 44.793 58.584 C 45.124 58.223 45.387 57.805 45.57 57.35 C 45.624 57.203 45.711 57.073 45.863 57.073 C 46.122 57.073 46.108 57.373 46.098 57.58 L 46.056 58.145 Z M 33.883 54.778 C 33.959 54.607 34.005 54.424 34.021 54.238 C 34.021 53.938 33.721 53.838 33.493 53.824 C 33.318 53.814 33.049 53.801 33.049 53.517 C 33.049 53.304 33.284 53.304 33.426 53.304 C 33.766 53.304 34.095 53.331 34.435 53.331 C 34.775 53.331 35.104 53.304 35.447 53.304 C 35.602 53.304 35.753 53.304 35.753 53.517 C 35.753 53.747 35.588 53.801 35.423 53.824 C 35.123 53.884 35.036 53.854 34.838 54.134 C 34.614 54.501 34.428 54.89 34.283 55.295 L 32.511 59.571 L 31.872 61.309 C 31.637 62.096 31.69 62.293 30.914 62.293 C 30.396 62.293 29.875 62.26 29.875 61.549 C 29.871 61.321 29.924 61.095 30.03 60.892 C 30.205 60.628 30.477 60.662 30.723 60.679 C 31.076 60.692 31.359 60.772 31.604 60.442 C 31.741 60.251 31.827 60.029 31.853 59.795 C 31.817 59.54 31.742 59.293 31.631 59.061 L 29.889 55.061 C 29.74 54.721 29.567 54.392 29.371 54.077 C 29.216 53.867 29.112 53.867 28.89 53.82 C 28.745 53.797 28.55 53.757 28.55 53.526 C 28.55 53.295 28.772 53.299 28.95 53.299 C 29.468 53.299 30.009 53.326 30.52 53.326 C 30.971 53.326 31.441 53.299 31.899 53.299 C 32.05 53.299 32.326 53.299 32.326 53.526 C 32.326 53.726 32.158 53.783 32.017 53.82 C 31.876 53.857 31.56 53.88 31.56 54.14 C 31.593 54.345 31.656 54.544 31.748 54.73 L 32.616 56.788 C 32.656 56.855 32.771 57.198 32.861 57.198 C 32.979 57.198 33.086 56.868 33.113 56.774 L 33.883 54.778 Z M 27.51 56.7 C 27.51 57.194 27.463 58.5 28.088 58.5 C 28.475 58.5 28.734 58.116 28.909 58.116 C 28.93 58.118 28.951 58.125 28.97 58.135 C 28.989 58.145 29.006 58.159 29.019 58.176 C 29.033 58.192 29.043 58.212 29.049 58.232 C 29.055 58.253 29.056 58.275 29.054 58.296 C 29.054 58.476 28.815 58.743 28.724 58.85 C 28.527 59.06 28.29 59.228 28.028 59.344 C 27.765 59.461 27.481 59.524 27.194 59.53 C 26.982 59.528 26.774 59.477 26.586 59.378 C 26.399 59.28 26.237 59.139 26.115 58.966 C 25.864 58.514 25.746 58.001 25.772 57.485 L 25.772 54.695 C 25.771 54.508 25.759 54.321 25.738 54.135 C 25.714 54.002 25.57 53.965 25.452 53.965 C 25.301 53.965 24.921 54.028 24.921 53.812 C 24.921 53.612 25.17 53.512 25.301 53.455 C 25.971 53.16 26.522 52.646 26.861 51.997 C 26.948 51.82 27.066 51.553 27.261 51.553 C 27.506 51.553 27.461 51.86 27.461 52.053 L 27.461 52.97 C 27.461 53.354 27.532 53.334 27.838 53.334 L 28.447 53.334 C 28.696 53.334 28.871 53.267 28.871 53.601 C 28.871 53.975 28.79 53.968 28.471 53.968 L 27.902 53.968 C 27.512 53.968 27.512 53.955 27.512 54.485 L 27.51 56.7 Z M 22.211 51.516 C 22.211 51.379 22.239 51.243 22.292 51.117 C 22.345 50.991 22.423000000000002 50.876 22.521 50.78 C 22.618 50.684 22.734 50.609 22.862000000000002 50.558 C 22.989 50.507 23.125 50.483 23.262 50.485 C 23.398 50.48 23.533 50.502 23.659 50.551 C 23.785 50.6 23.9 50.674 23.997 50.769 C 24.094 50.864 24.17 50.978 24.221 51.103 C 24.272 51.229 24.297 51.364 24.294 51.499 C 24.302 51.642 24.281 51.785 24.231 51.92 C 24.181 52.054 24.104 52.177 24.005 52.28 C 23.905 52.383 23.786 52.465 23.653 52.52 C 23.521 52.575 23.379 52.602 23.235 52.599 C 23.096 52.6 22.957 52.573 22.829 52.518 C 22.7 52.464 22.584 52.383 22.488 52.282 C 22.392 52.18 22.318 52.06 22.271 51.929 C 22.224 51.797 22.204 51.657 22.213 51.518 L 22.211 51.516 Z M 24.143 57.612 C 24.116 57.968 24.132 58.327 24.19 58.679 C 24.244 58.879 24.61 58.866 24.822 58.902 C 24.953 58.932 25.104 59.012 25.104 59.182 C 25.104 59.415 24.899 59.442 24.744 59.442 C 24.244 59.442 23.752 59.415 23.261 59.415 C 22.77 59.415 22.293 59.442 21.805 59.442 C 21.647 59.442 21.449 59.415 21.449 59.182 C 21.449 59.012 21.59 58.932 21.731 58.902 C 21.892 58.875 22.262 58.865 22.319 58.679 C 22.387 58.328 22.414 57.97 22.4 57.612 L 22.4 55.642 C 22.4 55.085 22.437 54.778 21.882 54.695 C 21.717 54.682 21.529 54.695 21.529 54.468 C 21.529 54.241 21.906 54.188 22.029 54.148 C 22.61 53.991 23.135 53.675 23.546 53.237 C 23.592 53.164 23.655 53.103 23.73 53.061 C 23.805 53.019 23.89 52.997 23.976 52.997 C 24.158 52.997 24.137 53.347 24.137 53.481 L 24.143 57.612 Z M 20.963 58.145 C 20.939 58.589 20.953 58.762 20.593 58.999 C 19.919 59.427 19.131 59.643 18.333 59.619 C 17.218 59.655 16.125 59.305 15.239 58.628 C 14.773 58.21 14.4 57.699 14.144 57.128 C 13.888 56.556 13.754 55.938 13.751 55.312 C 13.749 54.682 13.883 54.06 14.145 53.487 C 14.407 52.915 14.79 52.406 15.268 51.996 C 16.212 51.26 17.377 50.865 18.574 50.875 C 19.171 50.882 19.763 50.977 20.333 51.155 C 20.652 51.262 20.652 51.312 20.716 51.685 L 20.807 52.372 C 20.832 52.499 20.846 52.627 20.851 52.756 C 20.854 52.786 20.85 52.816 20.841 52.844 C 20.831 52.873 20.815 52.899 20.794 52.92 C 20.773 52.942 20.748 52.959 20.72 52.969 C 20.692 52.98 20.662 52.985 20.632 52.983 C 20.091 52.983 20.054 51.392 18.47 51.392 C 18.072 51.414 17.686 51.535 17.347 51.745 C 17.008 51.954 16.727 52.246 16.53 52.592 C 16.082 53.381 15.858 54.277 15.881 55.184 C 15.863 56.074 16.065 56.955 16.469 57.749 C 16.651 58.131 16.933 58.457 17.285 58.693 C 17.637 58.928 18.046 59.065 18.469 59.087 C 18.927 59.078 19.365 58.897 19.696 58.58 C 20.031 58.221 20.296 57.803 20.476 57.346 C 20.533 57.199 20.617 57.069 20.776 57.069 C 21.032 57.069 21.015 57.369 21.005 57.576 L 20.963 58.145 Z M 59.591 58.021 C 59.578 58.365 59.791 58.448 60.119 58.491 C 60.233 58.504 60.341 58.544 60.341 58.704 C 60.341 58.927 59.941 58.998 59.8 59.021 L 58.579 59.428 C 58.422 59.5 58.257 59.553 58.088 59.588 C 57.873 59.588 57.947 59.234 57.947 59.088 C 57.947 59.008 57.994 58.608 57.839 58.608 C 57.765 58.608 57.661 58.701 57.617 58.741 C 57.153 59.201 56.54 59.48 55.889 59.528 C 55.632 59.529 55.379 59.472 55.148 59.36 C 54.918 59.249 54.715 59.086 54.557 58.884 C 54.269 58.383 54.139 57.806 54.184 57.23 L 54.184 55.099 C 54.213 54.762 54.176 54.422 54.076 54.099 C 53.945 53.872 53.713 53.856 53.494 53.799 C 53.356 53.776 53.215 53.709 53.215 53.519 C 53.215 53.292 53.415 53.306 53.568 53.306 C 53.935 53.306 54.288 53.333 54.654 53.333 C 55.02 53.333 55.367 53.306 55.737 53.306 C 55.888 53.306 55.919 53.333 55.919 53.519 L 55.919 57.119 C 55.907 57.476 55.969 57.831 56.101 58.163 C 56.17 58.287 56.27 58.39 56.392 58.462 C 56.514 58.534 56.652 58.572 56.794 58.573 C 57.134 58.544 57.45 58.383 57.672 58.123 C 57.837 57.886 57.902 57.594 57.854 57.309 L 57.854 55.112 C 57.884 54.771 57.85 54.427 57.754 54.098 C 57.684 54.009 57.595 53.936 57.494 53.884 C 57.393 53.832 57.282 53.803 57.169 53.798 C 57.038 53.775 56.897 53.708 56.897 53.531 C 56.897 53.291 57.097 53.304 57.25 53.304 C 57.617 53.304 57.98 53.331 58.34 53.331 C 58.7 53.331 59.073 53.304 59.44 53.304 C 59.648 53.304 59.595 53.574 59.595 53.761 L 59.591 58.021 Z M 63.246 54.068 C 63.431 54.068 64.016 53.161 65.173 53.161 C 65.719 53.149 66.249 53.345 66.656 53.708 C 66.856 53.933 67.003 54.2 67.085 54.489 C 67.168 54.778 67.184 55.083 67.133 55.379 L 67.133 57.61 C 67.09 57.97 67.131 58.336 67.254 58.677 C 67.368 58.85 67.631 58.864 67.809 58.9 C 67.883 58.909 67.951 58.944 68.001 58.999 C 68.052 59.054 68.08 59.126 68.081 59.2 C 68.081 59.43 67.876 59.443 67.725 59.443 C 67.298 59.443 66.898 59.416 66.477 59.416 C 65.939 59.416 65.398 59.443 64.856 59.443 C 64.728 59.443 64.584 59.403 64.584 59.2 C 64.58 59.131 64.602 59.062 64.644 59.007 C 64.687 58.952 64.748 58.914 64.816 58.9 C 64.915 58.889 65.011 58.857 65.098 58.807 C 65.184 58.756 65.258 58.688 65.316 58.606 C 65.403 58.28 65.432 57.942 65.4 57.606 L 65.4 55.642 C 65.419 55.245 65.351 54.849 65.2 54.481 C 65.122 54.336 65.007 54.215 64.866 54.131 C 64.725 54.046 64.564 54.001 64.4 54.001 C 64.069 54.017 63.756 54.156 63.522 54.391 C 63.203 54.691 63.253 54.975 63.253 55.432 L 63.253 57.61 C 63.219 57.946 63.246 58.284 63.334 58.61 C 63.392 58.691 63.467 58.76 63.553 58.81 C 63.639 58.861 63.735 58.893 63.834 58.904 C 63.902 58.918 63.963 58.956 64.006 59.011 C 64.048 59.066 64.07 59.135 64.066 59.204 C 64.066 59.404 63.921 59.447 63.79 59.447 C 63.255 59.447 62.714 59.42 62.176 59.42 C 61.749 59.42 61.349 59.447 60.928 59.447 C 60.777 59.447 60.565 59.434 60.565 59.204 C 60.567 59.129 60.597 59.057 60.648 59.001 C 60.699 58.946 60.769 58.912 60.844 58.904 C 61.022 58.867 61.281 58.854 61.395 58.681 C 61.518 58.34 61.559 57.974 61.513 57.614 L 61.513 55.642 C 61.513 55.085 61.553 54.778 60.995 54.695 C 60.834 54.678 60.642 54.695 60.642 54.465 C 60.642 54.235 61.022 54.188 61.15 54.148 C 61.73 53.99 62.255 53.675 62.667 53.237 C 62.71 53.164 62.772 53.104 62.846000000000004 53.062 C 62.919 53.02 63.002 52.998 63.087 52.997 C 63.279 52.997 63.255 53.351 63.255 53.481 L 63.246 54.068 Z M 71.458 53.65 C 71.27 53.678 71.091 53.745 70.93 53.847 C 70.77 53.948 70.633 54.082 70.527 54.24 C 70.183 54.723 70.004 55.305 70.016 55.898 C 70.016 57.259 70.85 58.623 72.168 58.623 C 73.025 58.623 73.281 58.129 73.51 58.129 C 73.548 58.135 73.582 58.154 73.607 58.183 C 73.633 58.211 73.647 58.248 73.648 58.286 C 73.648 58.593 73.308 58.836 73.117 58.986 C 72.587 59.348 71.959 59.54 71.317 59.536 C 70.896 59.549 70.476 59.474 70.085 59.316 C 69.694 59.159 69.339 58.921 69.045 58.62 C 68.75 58.318 68.521 57.959 68.372 57.564 C 68.223 57.169 68.158 56.748 68.18 56.327 C 68.239 55.436 68.647 54.605 69.314 54.012 C 69.982 53.42 70.857 53.114 71.748 53.162 C 72.25 53.151 72.746 53.274 73.184 53.519 C 73.296 53.562 73.39 53.641 73.452 53.743 C 73.515 53.845 73.542 53.964 73.53 54.083 C 73.53 54.403 73.419 55.297 73.036 55.297 C 72.653 55.297 72.478 54.84 72.326 54.553 C 72.114 54.146 71.943 53.653 71.455 53.653 M 74.814 51.516 C 74.814 51.38 74.84 51.245 74.892 51.119 C 74.945 50.993 75.021 50.879 75.118 50.783 C 75.214 50.687 75.329 50.612 75.455 50.56 C 75.582 50.509 75.717 50.484 75.853 50.485 C 75.989 50.479 76.125 50.5 76.252 50.549 C 76.379 50.597 76.495 50.671 76.592 50.766 C 76.689 50.862 76.765 50.976 76.817 51.102 C 76.868 51.228 76.892 51.363 76.889 51.499 C 76.897 51.642 76.876 51.786 76.826 51.92 C 76.776 52.055 76.699 52.177 76.6 52.281 C 76.5 52.384 76.381 52.465 76.248 52.52 C 76.116 52.575 75.973 52.602 75.83 52.599 C 75.69 52.602 75.551 52.575 75.423 52.521 C 75.294 52.467 75.178 52.386 75.082 52.284 C 74.986 52.182 74.913 52.061 74.867 51.929 C 74.821 51.798 74.803 51.657 74.814 51.518 L 74.814 51.516 Z M 76.741 57.612 C 76.715 57.968 76.729 58.326 76.785 58.679 C 76.846 58.879 77.212 58.866 77.424 58.902 C 77.552 58.932 77.703 59.012 77.703 59.182 C 77.703 59.415 77.488 59.442 77.336 59.442 C 76.845 59.442 76.354 59.415 75.853 59.415 C 75.352 59.415 74.891 59.442 74.4 59.442 C 74.245 59.442 74.047 59.415 74.047 59.182 C 74.047 59.012 74.188 58.932 74.329 58.902 C 74.494 58.875 74.857 58.865 74.914 58.679 C 74.982 58.328 75.009 57.97 74.995 57.612 L 74.995 55.642 C 74.995 55.085 75.039 54.778 74.481 54.695 C 74.316 54.682 74.131 54.695 74.131 54.468 C 74.131 54.241 74.508 54.188 74.631 54.148 C 75.213 53.99 75.739 53.675 76.154 53.237 C 76.196 53.164 76.256 53.104 76.329 53.062 C 76.402 53.02 76.484 52.997 76.568 52.997 C 76.768 52.997 76.739 53.347 76.739 53.481 L 76.741 57.612 Z M 80.501 58.316 C 80.501 58.359 80.501 58.816 81.143 58.906 C 81.301 58.933 81.523 58.969 81.523 59.213 C 81.523 59.413 81.402 59.44 81.257 59.44 C 80.689 59.44 80.144 59.417 79.609 59.417 C 79.041 59.417 78.483 59.44 77.914 59.44 C 77.746 59.44 77.628 59.417 77.628 59.213 C 77.628 58.969 77.813 58.933 77.954 58.906 C 78.664 58.813 78.664 58.359 78.664 58.316 L 78.664 52.089 C 78.664 51.359 78.704 51.218 78.042 51.115 C 77.955 51.102 77.813 51.062 77.813 50.915 C 77.813 50.662 78.153 50.631 78.313 50.608 C 78.849 50.511 79.371 50.349 79.867 50.124 C 80.003 50.05 80.151 50.001 80.304 49.977 C 80.556 49.977 80.504 50.431 80.504 50.621 L 80.501 58.316 Z M 39.272 31.249 C 39.273 31.168 39.301 31.09 39.352 31.027 C 39.402 30.965 39.472 30.92 39.551 30.902 C 39.551 30.902 39.601 30.902 39.601 30.789 C 39.601 30.701999999999998 39.561 30.682 39.561 30.682 L 38.949 30.682 C 38.764 30.682 38.566 31.019 38.566 31.276 C 38.562 31.34 38.573 31.404 38.598 31.463 C 38.623 31.522 38.662 31.575 38.711 31.616 L 38.139 32.904 L 38.183 32.964 L 38.859 32.964 L 39.431 31.664 C 39.44 31.644 39.444 31.623 39.444 31.601 C 39.444 31.588 39.441 31.576 39.436 31.564 C 39.431 31.553 39.423 31.542 39.414 31.534 C 39.37 31.501 39.334 31.458 39.309 31.408 C 39.285 31.359 39.272 31.304 39.272 31.249 Z M 45.285 31.249 C 45.286 31.168 45.314 31.089 45.365 31.026 C 45.416 30.963 45.488 30.919 45.567 30.902 C 45.567 30.902 45.607 30.902 45.607 30.789 C 45.607 30.701999999999998 45.57 30.682 45.57 30.682 L 44.955 30.682 C 44.807 30.222 44.673 29.751 44.541 29.282 C 44.386 28.715 44.269 28.215 44.185 27.741 C 43.65 26.941 42.985 26.38 42.968 25.306 C 43.029 24.54 43.383 23.827 43.957 23.315 C 44.213 23.015 44.172 22.995 44.287 22.551 C 44.287 22.551 44.487 21.834 44.606 21.351 C 45.097 19.433 45.924 18.536 46.496 16.641 C 46.972 15.309 47.278 13.921 47.404 12.512 C 47.473 11.702 47.464 10.888 47.377 10.08 L 47.343 9.98 C 46.933 9.963 46.899 10.38 46.879 10.69 C 46.741 12.975 45.879 13.769 44.454 15.27 C 43.895 15.715 43.28 16.085 42.625 16.37 C 40.497 17.283 38.72 18.857 37.557 20.86 C 37.374 21.286 37.24 21.732 37.157 22.188 C 37.094 22.514 37.051 22.844 37.029 23.175 C 36.807 23.652 37.786 24.202 37.913 25.275 C 38.019 25.904 37.908 26.549 37.597 27.106 C 38.277 28.275 39.103 29.354 40.054 30.316 C 40.244 30.492 40.444 30.657 40.654 30.81 C 40.549 30.945 40.488 31.109 40.479 31.28 C 40.476 31.344 40.488 31.408 40.513 31.466 C 40.538 31.525 40.576 31.578 40.624 31.62 L 40.056 32.908 L 40.093 32.968 L 40.772 32.968 L 41.347 31.668 C 41.356 31.648 41.36 31.627 41.36 31.605 C 41.359 31.58 41.348 31.556 41.33 31.538 C 41.284 31.506 41.247 31.463 41.222 31.414 C 41.197 31.365 41.184 31.31 41.185 31.254 C 41.186 31.181 41.208 31.11 41.249 31.05 C 41.29 30.99 41.348 30.943 41.416 30.916 C 41.469 30.946 41.513 30.99 41.543 31.043 C 41.573 31.095 41.589 31.155 41.588 31.216 C 41.588 31.26 41.581 31.304 41.568 31.346 L 42.533 31.346 C 42.535 31.399 42.55 31.451 42.575 31.498 C 42.6 31.544 42.635 31.585 42.678 31.616 L 42.557 31.88 L 41.979 32.951 L 42.147 32.964 L 42.826 32.964 L 43.391 31.664 C 43.402 31.645 43.409 31.623 43.411 31.601 C 43.411 31.588 43.408 31.575 43.402 31.563 C 43.396 31.552 43.388 31.542 43.377 31.534 C 43.325 31.495 43.284 31.442 43.26 31.381 C 43.236 31.32 43.229 31.253 43.241 31.189 C 43.252 31.125 43.28 31.064 43.324 31.015 C 43.367 30.966 43.422 30.929 43.485 30.91 C 43.541 30.939 43.588 30.983 43.621 31.038 C 43.655 31.091 43.672 31.154 43.673 31.217 C 43.671 31.261 43.662 31.305 43.646 31.347 L 44.581 31.347 C 44.584 31.399 44.598 31.451 44.623 31.497 C 44.647 31.544 44.681 31.585 44.722 31.617 L 44.604 31.877 L 44.022 32.951 L 44.183 32.964 L 44.872 32.964 L 45.44 31.664 C 45.449 31.644 45.455 31.623 45.457 31.601 C 45.458 31.589 45.455 31.576 45.451 31.565 C 45.446 31.553 45.439 31.543 45.43 31.534 C 45.384 31.502 45.347 31.46 45.322 31.41 C 45.297 31.36 45.284 31.306 45.285 31.25 L 45.285 31.249 Z M 33.811 31.25 C 33.811 31.168 33.84 31.088 33.892 31.025 C 33.944 30.962 34.016 30.919 34.097 30.903 C 34.097 30.903 34.137 30.903 34.137 30.79 C 34.137 30.703 34.1 30.683 34.1 30.683 L 33.485 30.683 C 33.303 30.683 33.102 31.02 33.102 31.277 C 33.098 31.341 33.11 31.406 33.135 31.465 C 33.161 31.524 33.2 31.576 33.25 31.617 L 32.672 32.904 L 32.716 32.964 L 33.395 32.964 L 33.96 31.664 C 33.969 31.644 33.975 31.623 33.977 31.601 C 33.977 31.588 33.974 31.576 33.969 31.564 C 33.964 31.553 33.956 31.542 33.947 31.534 C 33.903 31.501 33.868 31.458 33.844 31.408 C 33.82 31.359 33.808 31.305 33.809 31.25 L 33.811 31.25 Z M 47.33 31.25 C 47.33 31.169 47.358 31.09 47.408 31.027 C 47.459 30.964 47.53 30.92 47.609 30.903 C 47.609 30.903 47.656 30.903 47.656 30.79 C 47.656 30.703 47.616 30.683 47.616 30.683 L 47.004 30.683 C 46.816 30.683 46.621 31.02 46.621 31.277 C 46.617 31.341 46.627 31.405 46.652 31.463 C 46.676 31.522 46.714 31.575 46.762 31.617 L 46.194 32.905 L 46.238 32.965 L 46.917 32.965 L 47.482 31.665 C 47.491 31.645 47.497 31.624 47.499 31.602 C 47.5 31.589 47.497 31.576 47.491 31.564 C 47.485 31.552 47.476 31.542 47.465 31.535 C 47.423 31.501 47.389 31.458 47.365 31.408 C 47.342 31.359 47.33 31.305 47.331 31.251 L 47.33 31.25 Z M 49.372 31.251 C 49.373 31.169 49.402 31.091 49.454 31.027 C 49.506 30.965 49.578 30.921 49.658 30.904 C 49.658 30.904 49.702 30.904 49.702 30.791 C 49.702 30.704 49.665 30.684 49.665 30.684 L 49.052 30.684 C 48.867 30.684 48.665 31.021 48.665 31.278 C 48.662 31.341 48.674 31.405 48.698 31.463 C 48.722 31.522 48.759 31.575 48.806 31.618 L 48.241 32.906 L 48.281 32.966 L 48.957 32.966 L 49.529 31.666 C 49.538 31.646 49.544 31.625 49.546 31.603 C 49.546 31.59 49.543 31.578 49.538 31.566 C 49.533 31.555 49.525 31.544 49.516 31.536 C 49.472 31.503 49.435 31.46 49.41 31.411 C 49.385 31.362 49.372 31.307 49.371 31.252 L 49.372 31.251 Z M 51.419 31.252 C 51.419 31.171 51.447 31.093 51.498 31.03 C 51.549 30.967 51.619 30.923000000000002 51.698 30.905 C 51.698 30.905 51.745 30.905 51.745 30.792 C 51.745 30.705 51.705 30.685 51.705 30.685 L 51.096 30.685 C 50.911 30.685 50.716 31.022 50.716 31.279 C 50.712 31.342 50.722 31.406 50.746 31.465 C 50.77 31.524 50.807 31.576 50.854 31.619 L 50.282 32.907 L 50.322 32.967 L 51.005 32.967 L 51.573 31.667 C 51.584 31.648 51.59 31.626 51.59 31.604 C 51.588 31.579 51.579 31.556 51.563 31.537 C 51.518 31.505 51.481 31.462 51.456 31.413 C 51.431 31.363 51.418 31.308 51.418 31.253 L 51.419 31.252 Z M 53.466 31.253 C 53.467 31.172 53.495 31.093 53.546 31.03 C 53.597 30.967 53.669 30.923000000000002 53.748 30.906 C 53.748 30.906 53.785 30.906 53.785 30.793 C 53.785 30.706 53.748 30.686 53.748 30.686 L 53.148 30.686 C 52.956 30.686 52.755 31.023 52.755 31.28 C 52.752 31.344 52.764 31.408 52.79 31.467 C 52.815 31.526 52.854 31.578 52.903 31.62 L 52.331 32.908 L 52.375 32.968 L 53.054 32.968 L 53.626 31.668 C 53.633 31.648 53.638 31.627 53.639 31.605 C 53.638 31.592 53.635 31.579 53.629 31.568 C 53.623 31.556 53.615 31.546 53.605 31.538 C 53.561 31.505 53.526 31.462 53.502 31.412 C 53.478 31.363 53.466 31.309 53.467 31.254 L 53.466 31.253 Z M 55.512 31.254 C 55.513 31.172 55.542 31.094 55.594 31.03 C 55.646 30.968 55.718 30.924 55.798 30.907 C 55.798 30.907 55.842 30.907 55.842 30.794 C 55.842 30.707 55.802 30.687 55.802 30.687 L 55.187 30.687 C 55.009 30.687 54.804 31.024 54.804 31.281 C 54.801 31.345 54.813 31.409 54.838 31.467 C 54.863 31.526 54.901 31.579 54.949 31.621 L 54.384 32.909 L 54.421 32.969 L 55.097 32.969 L 55.669 31.669 C 55.68 31.649 55.687 31.628 55.689 31.606 C 55.689 31.593 55.686 31.58 55.68 31.568 C 55.674 31.557 55.666 31.547 55.655 31.539 C 55.611 31.506 55.576 31.463 55.551 31.414 C 55.527 31.364 55.514 31.31 55.514 31.255 L 55.512 31.254 Z M 20.584 32.897 C 20.412 32.575 20.259 32.243 20.127 31.903 C 19.786 31.065 19.665 30.153 19.774 29.255 C 19.959 27.914 20.793 27.397 21.395 26.186 C 21.96 25.235 22.429 24.23 22.795 23.186 C 23.086 22.285 23.25 21.347 23.283 20.401 C 23.117 20.42 22.965 20.502 22.859 20.631 C 22.624 20.864 22.24 22.469 21.689 23.503 C 21.342 24.204 20.842 24.819 20.226 25.303 C 19.026 26.303 17.556 26.594 17.038 27.464 C 16.581 28.122 16.395 28.93 16.517 29.722 C 16.616 30.243 16.823 30.737 17.125 31.172 C 17.428 31.607 17.818 31.973 18.272 32.247 C 18.614 32.506 18.985 32.724 19.378 32.897 L 20.584 32.897 Z M 23.896 18.797 C 23.896 19.097 23.533 19.244 23.237 19.244 C 22.941 19.244 22.571 19.097 22.571 18.797 C 22.571 18.497 22.934 18.347 23.237 18.347 C 23.54 18.347 23.896 18.497 23.896 18.797 Z M 22.743 17.846 C 22.753 17.656 22.894 16.729 23.243 16.729 C 23.592 16.729 23.717 17.616 23.727 17.82 C 23.729 17.884 23.718 17.949 23.695 18.009 C 23.672 18.069 23.637 18.124 23.593 18.171 C 23.548000000000002 18.218 23.495 18.256 23.436 18.282 C 23.377 18.308 23.314 18.323 23.249 18.325 C 23.185 18.326 23.121 18.315 23.061 18.292 C 23 18.269 22.945 18.235 22.898 18.19 C 22.851 18.146 22.814 18.093 22.787 18.034 C 22.761 17.975 22.747 17.911 22.745 17.847 L 22.743 17.846 Z M 23.498 13.638 C 23.448 13.508 23.398 13.428 23.363 13.311 L 23.239 12.934 C 23.15 13.216 23.041 13.491 22.913 13.758 C 22.878 13.807 22.855 13.863 22.846 13.922 C 22.837 13.981 22.843 14.042 22.862000000000002 14.098 C 22.881 14.155 22.913 14.206 22.956 14.248 C 22.999 14.29 23.051 14.321 23.108 14.338 C 23.165 14.356 23.226 14.36 23.285 14.349 C 23.344 14.339 23.399 14.314 23.447 14.278 C 23.495 14.242 23.533 14.195 23.559 14.141 C 23.585 14.087 23.598 14.028 23.596 13.968 C 23.616 13.811 23.542 13.758 23.496 13.638 L 23.498 13.638 Z M 24.024 16.08 C 23.966 16.245 23.862000000000002 16.39 23.723 16.496 C 23.585 16.603 23.418 16.667 23.244 16.68 C 23.065 16.676 22.892 16.616 22.75 16.508 C 22.607 16.401 22.502 16.251 22.45 16.08 C 22.41 15.98 22.292 15.957 22.137 15.943 L 22.137 15.743 L 22.46 15.743 C 22.497 15.566 22.595 15.408 22.737 15.296 C 22.879 15.185 23.056 15.127 23.237 15.133 C 23.416 15.13 23.592 15.189 23.732 15.3 C 23.873 15.411 23.971 15.568 24.01 15.743 L 24.329 15.743 L 24.329 15.943 C 24.174 15.956 24.06 15.975999999999999 24.023 16.08 L 24.024 16.08 Z M 23.236 14.346 C 23.309 14.348 23.38 14.371 23.44 14.412 C 23.5 14.454 23.547 14.513 23.574 14.581 C 23.601 14.649000000000001 23.607 14.723 23.592 14.795 C 23.577 14.866 23.541 14.932 23.489 14.983 C 23.437 15.034 23.371 15.069 23.299 15.083 C 23.227 15.097 23.153 15.089 23.085 15.061 C 23.018 15.033 22.96 14.986 22.919 14.925 C 22.878 14.864 22.856 14.793 22.856 14.72 C 22.858 14.62 22.898 14.525 22.969 14.455 C 23.04 14.385 23.136 14.346 23.236 14.346 Z M 23.502 20.016 C 23.347 20.029 23.223 20.036 23.223 20.036 C 23.223 20.036 23.102 20.029 22.951 20.016 C 22.758 19.998 22.567 19.964 22.379 19.916 L 22.322 19.596 C 22.575 19.374 22.901 19.252 23.238 19.256 C 23.575 19.259 23.899 19.386 24.148 19.613 L 24.081 19.913 C 23.892 19.963 23.698 19.997 23.503 20.013 L 23.502 20.016 Z M 72.135 18.799 C 72.135 19.099 71.765 19.246 71.469 19.246 C 71.173 19.246 70.81 19.099 70.81 18.799 C 70.81 18.499 71.173 18.349 71.469 18.349 C 71.765 18.349 72.135 18.499 72.135 18.799 Z M 70.978 17.848 C 70.988 17.658 71.129 16.731 71.478 16.731 C 71.827 16.731 71.959 17.618 71.962 17.822 C 71.966 17.952 71.917 18.079 71.828 18.173 C 71.738 18.268 71.615 18.323 71.484 18.326 C 71.354 18.33 71.228 18.282 71.133 18.192 C 71.039 18.103 70.984 17.979 70.98 17.849 L 70.978 17.848 Z M 71.73 13.64 C 71.686 13.51 71.636 13.43 71.595 13.313 L 71.471 12.936 C 71.387 13.219 71.28 13.494 71.152 13.76 C 71.117 13.809 71.094 13.865 71.085 13.924 C 71.076 13.983 71.082 14.044 71.101 14.1 C 71.12 14.157 71.152 14.208 71.195 14.25 C 71.238 14.292 71.29 14.323 71.347 14.34 C 71.404 14.358 71.465 14.362 71.524 14.350999999999999 C 71.583 14.341 71.638 14.316 71.686 14.28 C 71.734 14.244 71.772 14.197 71.798 14.143 C 71.824 14.089 71.837 14.03 71.835 13.97 C 71.855 13.813 71.778 13.76 71.735 13.64 L 71.73 13.64 Z M 72.263 16.082 C 72.208 16.247 72.105 16.391 71.968 16.498 C 71.831 16.605 71.666 16.669 71.493 16.682 C 71.314 16.679 71.14 16.619 70.996 16.511 C 70.853 16.404 70.746 16.253 70.693 16.082 C 70.656 15.982 70.535 15.959 70.384 15.945 L 70.384 15.745 L 70.703 15.745 C 70.748 15.574 70.848 15.423 70.988 15.315 C 71.128 15.208 71.3 15.149000000000001 71.476 15.149000000000001 C 71.653 15.149000000000001 71.825 15.208 71.965 15.315 C 72.105 15.423 72.205 15.574 72.25 15.745 L 72.569 15.745 L 72.569 15.945 C 72.418 15.958 72.3 15.978 72.263 16.082 Z M 71.476 14.348 C 71.549 14.348 71.621 14.37 71.682 14.411 C 71.743 14.452 71.791 14.51 71.819 14.578 C 71.847 14.646 71.854 14.72 71.84 14.792 C 71.826 14.864 71.79 14.931000000000001 71.738 14.983 C 71.686 15.035 71.62 15.07 71.548 15.085 C 71.476 15.099 71.402 15.092 71.334 15.064 C 71.266 15.036 71.208 14.989 71.167 14.928 C 71.125 14.867 71.103 14.795 71.103 14.722 C 71.103 14.623 71.142 14.528 71.212 14.458 C 71.282 14.388 71.377 14.348 71.476 14.348 Z M 71.745 20.015 C 71.59 20.028 71.466 20.035 71.466 20.035 C 71.466 20.035 71.348 20.028 71.197 20.015 C 71.004 19.997 70.813 19.963 70.625 19.915 L 70.564 19.595 C 70.688 19.477 70.835 19.385 70.996 19.327 C 71.157 19.268 71.328 19.244 71.499 19.255 C 71.664 19.251 71.828 19.28 71.981 19.342 C 72.134 19.403 72.273 19.495 72.39 19.612 L 72.323 19.912 C 72.134 19.962 71.94 19.996 71.745 20.012 L 71.745 20.015 Z M 61.206 8.012 C 61.243 8.102 61.306 8.145 61.287 8.262 C 61.284 8.33 61.257 8.395 61.211 8.445 C 61.165 8.495 61.103 8.527 61.035 8.536 C 60.989 8.529 60.945 8.511 60.907 8.484 C 60.869 8.457 60.838 8.422 60.817 8.38 C 60.795 8.339 60.784 8.293 60.784 8.246 C 60.784 8.2 60.795 8.154 60.816 8.112 C 60.899 7.932 60.972 7.747 61.035 7.558 C 61.085 7.711 61.149 7.8580000000000005 61.207 8.012 L 61.206 8.012 Z M 58.787 33.516 L 58.558 33.232 L 58.736 32.975 L 58.736 30.875 L 58.936 30.875 C 58.98 30.875 59.023 30.883 59.063 30.899 C 59.104 30.916 59.14 30.94 59.171 30.971 C 59.202 31.001 59.227 31.038 59.244 31.078 C 59.26 31.118 59.269 31.161 59.269 31.205 C 59.271 31.282 59.245 31.357 59.196 31.416 C 59.147 31.476 59.079 31.516 59.003 31.529 L 59.47 32.55 L 59.47 28.995 L 59.77 28.645 L 59.77 27.828 C 59.77 27.221 60.234 26.951 60.211 26.737 C 60.167 26.475 60.062 26.227 59.905 26.013 L 59.905 16.446 C 60.024 16.137 60.223 15.867 60.483 15.661999999999999 L 60.483 15.348 C 60.312 15.325 60.151 15.257 60.014 15.152 C 59.878 15.046 59.772 14.907 59.706 14.748 C 59.548 14.418 59.276 14.381 58.936 14.434 L 58.936 14.047 L 59.703 14.047 L 59.703 11.947 L 59.003 11.947 L 59.003 11.606 L 59.709 11.606 L 59.809 11.376 L 59.947 11.376 C 59.897 11.225 59.876 11.065 59.886 10.906 C 59.92 10.366 60.343 10.152 60.626 9.772 C 60.759 9.609 60.87 9.43 60.956 9.238 C 60.897 9.227 60.842 9.199 60.797 9.159 C 60.753 9.118 60.72 9.066 60.704 9.008 L 60.596 8.995 L 60.596 8.805 L 60.717 8.805 C 60.741 8.745 60.782 8.693999999999999 60.836 8.659 C 60.89 8.623 60.953 8.604 61.017 8.605 C 61.082 8.604 61.147 8.623 61.201 8.659 C 61.256 8.693999999999999 61.3 8.745 61.326 8.805 L 61.44 8.805 L 61.44 8.995 L 61.332 9.008 C 61.315 9.068 61.282 9.121 61.235 9.162 C 61.189 9.203 61.131 9.229 61.07 9.238 C 61.164 9.427 61.276 9.606 61.406 9.772 C 61.695 10.152 62.116 10.366 62.146 10.906 C 62.158 11.065 62.14 11.224 62.092 11.376 L 62.23 11.376 L 62.33 11.606 L 63.04 11.606 L 63.04 11.95 L 62.34 11.95 L 62.34 14.05 L 63.107 14.05 L 63.107 14.437 C 62.771 14.384 62.495 14.42 62.337 14.751 C 62.271 14.911 62.165 15.051 62.028 15.156 C 61.891 15.261 61.728 15.329 61.557 15.350999999999999 L 61.557 15.665 C 61.818 15.869 62.017 16.14 62.135 16.449 L 62.135 26.016 C 61.983 26.232 61.88 26.48 61.835 26.74 C 61.808 26.953 62.276 27.224 62.276 27.831 L 62.276 28.648 L 62.576 28.998 L 62.576 32.547 L 63.043 31.526 C 62.968 31.512 62.9 31.472 62.852 31.412 C 62.804 31.353 62.779 31.278 62.781 31.202 C 62.781 31.159 62.789 31.115 62.805 31.075 C 62.822 31.035 62.846000000000004 30.999 62.877 30.968 C 62.907 30.937 62.944 30.913 62.984 30.896 C 63.024 30.88 63.068 30.872 63.111 30.872 L 63.311 30.872 L 63.311 32.972 L 63.486 33.229 L 63.261 33.513 L 58.787 33.516 Z M 60.045 12.065 L 60.045 14.016 L 60.415 14.016 L 60.415 12.063 C 60.394 12.033 60.367 12.009 60.334 11.992 C 60.302 11.975 60.266 11.966 60.23 11.966 C 60.194 11.966 60.158 11.975 60.126 11.992 C 60.093 12.009 60.066 12.033 60.045 12.063 L 60.045 12.065 Z M 61.064 31.249 C 61.065 31.167 61.094 31.089 61.146 31.026 C 61.198 30.963 61.27 30.919 61.35 30.902 C 61.35 30.902 61.39 30.902 61.39 30.789 C 61.39 30.701999999999998 61.353 30.682 61.353 30.682 L 60.744 30.682 C 60.556 30.682 60.357 31.019 60.357 31.276 C 60.354 31.34 60.366 31.404 60.391 31.462 C 60.416 31.521 60.454 31.574 60.502 31.616 L 59.934 32.904 L 59.971 32.964 L 60.654 32.964 L 61.222 31.664 C 61.231 31.644 61.237 31.623 61.239 31.601 C 61.239 31.588 61.236 31.576 61.231 31.564 C 61.226 31.553 61.218 31.542 61.209 31.534 C 61.164 31.502 61.127 31.459 61.102 31.41 C 61.077 31.36 61.064 31.305 61.064 31.25 L 61.064 31.249 Z M 60.549 16.426 L 60.256 16.459 L 60.256 25.746 L 60.556 25.746 L 60.549 16.426 Z M 60.916 12.043 L 60.916 14.016 L 61.283 14.016 L 61.283 12.043 C 61.263 12.008 61.234 11.98 61.198 11.962 C 61.163 11.945 61.122 11.938 61.083 11.943 C 61.049 11.944 61.015 11.954 60.986 11.971 C 60.956 11.989 60.932 12.013 60.915 12.043 L 60.916 12.043 Z M 61.815 12.043 L 61.815 14.016 L 61.997 14.016 L 61.997 12.043 C 61.997 12.043 61.967 11.953 61.916 11.943 C 61.865 11.933 61.816 12.043 61.816 12.043 L 61.815 12.043 Z M 33.826 8.016 C 33.856 8.106 33.913 8.149000000000001 33.9 8.266 C 33.897 8.334 33.871 8.398 33.825 8.448 C 33.78 8.498 33.718 8.531 33.651 8.54 C 33.605 8.533 33.561 8.515 33.523 8.488 C 33.485 8.461 33.454 8.426 33.433 8.384 C 33.411 8.343 33.4 8.297 33.4 8.25 C 33.4 8.204 33.411 8.158 33.432 8.116 C 33.518 7.937 33.591 7.752 33.651 7.562 C 33.708 7.715 33.762 7.862 33.826 8.016 Z M 31.415 33.516 L 31.183 33.232 L 31.361 32.975 L 31.361 30.875 L 31.561 30.875 C 31.605 30.875 31.648 30.883 31.689 30.899 C 31.729 30.916 31.766 30.94 31.797 30.97 C 31.829 31.001 31.853 31.038 31.87 31.078 C 31.888 31.118 31.897 31.161 31.897 31.205 C 31.897 31.282 31.871 31.357 31.822 31.416 C 31.772 31.475 31.704 31.515 31.628 31.529 L 32.099 32.55 L 32.099 28.995 L 32.399 28.645 L 32.399 27.828 C 32.399 27.221 32.863 26.951 32.843 26.737 C 32.798 26.475 32.692 26.227 32.534 26.013 L 32.534 16.446 C 32.654 16.137 32.855 15.866 33.116 15.661999999999999 L 33.116 15.348 C 32.945 15.325 32.783 15.258 32.646 15.152 C 32.509 15.047 32.402 14.908 32.336 14.748 C 32.181 14.418 31.902 14.381 31.563 14.434 L 31.563 14.047 L 32.333 14.047 L 32.333 11.947 L 31.633 11.947 L 31.633 11.606 L 32.346 11.606 L 32.446 11.376 L 32.572 11.376 C 32.526 11.224 32.507 11.065 32.518 10.906 C 32.548 10.366 32.969 10.152 33.258 9.772 C 33.39 9.608 33.502 9.429 33.591 9.238 C 33.53 9.228 33.474 9.201 33.427 9.16 C 33.381 9.12 33.347 9.067 33.329 9.008 L 33.221 8.995 L 33.221 8.805 L 33.349 8.805 C 33.371 8.744 33.413 8.692 33.467 8.656 C 33.52 8.62 33.584 8.602 33.649 8.605 C 33.714 8.603 33.777 8.621 33.831 8.657 C 33.885 8.693 33.926 8.745 33.949 8.805 L 34.072 8.805 L 34.072 8.995 L 33.958 9.008 C 33.942 9.066 33.91 9.119 33.866 9.16 C 33.821 9.201 33.766 9.228 33.706 9.238 C 33.792 9.43 33.903 9.609 34.036 9.772 C 34.322 10.152 34.746 10.366 34.776 10.906 C 34.785 11.065 34.767 11.224 34.722 11.376 L 34.863 11.376 L 34.957 11.606 L 35.667 11.606 L 35.667 11.95 L 34.967 11.95 L 34.967 14.05 L 35.734 14.05 L 35.734 14.437 C 35.394 14.384 35.119 14.42 34.964 14.751 C 34.897 14.909 34.79 15.048 34.654 15.153 C 34.518 15.258 34.357 15.326 34.187 15.350999999999999 L 34.187 15.665 C 34.447 15.870000000000001 34.646 16.14 34.765 16.449 L 34.765 26.016 C 34.61 26.232 34.504 26.479 34.456 26.74 C 34.432 26.953 34.903 27.224 34.903 27.831 L 34.903 28.648 L 35.189 28.998 L 35.189 32.547 L 35.666 31.526 C 35.591 31.512 35.523 31.472 35.475 31.412 C 35.427 31.353 35.402 31.278 35.404 31.202 C 35.404 31.159 35.412 31.116 35.429 31.076 C 35.445 31.036 35.47 30.999 35.5 30.968 C 35.531 30.938 35.567 30.913 35.608 30.897 C 35.648 30.88 35.691 30.872 35.734 30.872 L 35.934 30.872 L 35.934 32.972 L 36.109 33.229 L 35.887 33.513 L 31.415 33.516 Z M 32.672 12.063 L 32.672 14.016 L 33.035 14.016 L 33.035 12.063 C 33.016 12.031 32.989 12.004 32.957 11.987 C 32.924 11.969 32.887 11.961 32.85 11.963 C 32.814 11.963 32.779 11.972 32.748 11.99 C 32.717 12.007 32.691 12.032 32.672 12.063 Z M 33.172 16.426 L 32.879 16.459 L 32.879 25.746 L 33.172 25.746 L 33.172 16.426 Z M 33.545 12.043 L 33.545 14.016 L 33.905 14.016 L 33.905 12.043 C 33.885 12.008 33.856 11.98 33.82 11.962 C 33.785 11.945 33.744 11.938 33.705 11.943 C 33.671 11.944 33.638 11.953 33.609 11.971 C 33.58 11.989 33.556 12.013 33.54 12.043 L 33.545 12.043 Z M 34.434 12.043 L 34.434 14.016 L 34.622 14.016 L 34.622 12.043 C 34.622 12.043 34.588 11.953 34.535 11.943 C 34.482 11.933 34.435 12.043 34.435 12.043 L 34.434 12.043 Z M 17.026 34.135 L 77.649 34.135 C 77.705 34.128 77.762 34.133 77.816 34.15 C 77.87 34.167 77.92 34.195 77.963 34.232 C 78.005 34.27 78.039 34.316 78.063 34.368 C 78.086 34.419 78.098 34.475 78.098 34.532 C 78.098 34.589 78.086 34.645 78.063 34.696 C 78.039 34.748 78.005 34.794 77.963 34.832 C 77.92 34.869 77.87 34.897 77.816 34.914 C 77.762 34.931 77.705 34.936 77.649 34.929 L 17.026 34.929 C 16.97 34.936 16.913 34.931 16.859 34.914 C 16.804 34.897 16.755 34.869 16.712 34.832 C 16.67 34.794 16.636 34.748 16.612 34.696 C 16.589 34.645 16.577 34.589 16.577 34.532 C 16.577 34.475 16.589 34.419 16.612 34.368 C 16.636 34.316 16.67 34.27 16.712 34.232 C 16.755 34.195 16.804 34.167 16.859 34.15 C 16.913 34.133 16.97 34.128 17.026 34.135 Z M 72.289 20.503 C 72.393 20.677 72.466 20.868 72.504 21.067 C 72.759 21.973 73.127 22.844 73.597 23.659 C 74.925 26.141 79.327 25.093 79.468 29.459 C 79.529 30.147 79.4 30.838 79.096 31.458 C 78.792 32.077 78.324 32.602 77.743 32.975 L 77.901 33.232 L 77.709 33.516 L 65.237 33.516 L 65.002 33.199 L 65.177 32.982 C 64.595 32.608 64.127 32.082 63.821 31.462 C 63.515 30.841 63.384 30.149 63.442 29.46 C 63.583 25.094 67.982 26.141 69.303 23.66 C 69.78 22.847 70.149 21.976 70.403 21.068 C 70.541 20.524 70.803 20.081 71.472 20.094 C 71.632 20.083 71.792 20.115 71.935 20.187 C 72.079 20.259 72.2 20.369 72.286 20.504 L 72.289 20.503 Z M 68.816 32.959 C 68.64 32.618 68.488 32.266 68.359 31.905 C 68.022 31.066 67.903 30.155 68.013 29.257 C 68.191 27.916 69.025 27.399 69.63 26.188 C 70.194 25.236 70.663 24.231 71.03 23.188 C 71.324 22.288 71.489 21.35 71.518 20.403 C 71.352 20.422 71.2 20.505 71.094 20.633 C 70.855 20.866 70.475 22.471 69.924 23.505 C 69.577 24.207 69.077 24.822 68.461 25.305 C 67.261 26.305 65.798 26.596 65.273 27.466 C 64.819 28.125 64.634 28.933 64.755 29.724 C 64.854 30.243 65.062 30.736 65.364 31.17 C 65.667 31.604 66.057 31.969 66.51 32.242 C 66.846 32.516 67.21 32.754 67.596 32.952 L 68.816 32.959 Z M 47.337 33.516 L 36.825 33.516 L 36.536 33.226 L 36.805 32.993 L 36.805 30.869 L 37.072 30.869 C 37.117 30.87 37.161 30.88 37.202 30.899 C 37.242 30.917 37.279 30.944 37.309 30.977 C 37.339 31.01 37.362 31.049 37.377 31.091 C 37.392 31.133 37.398 31.178 37.395 31.223 C 37.385 31.295 37.354 31.363 37.306 31.418 C 37.258 31.472 37.196 31.513 37.126 31.533 L 37.795 32.69 L 37.795 31.346 L 38.121 31.346 L 38.121 31.293 C 36.867 29.475 35.902 27.893 35.972 25.379 C 36.137 20.489 38.363 17.937 42.385 15.899000000000001 C 42.985 15.64 43.549 15.307 44.066 14.908 C 45.408 13.508 46.228 12.793 46.356 10.659 C 46.393 10.059 46.733 9.459 47.341 9.459 C 47.949 9.459 48.286 10.059 48.323 10.659 C 48.457 12.794 49.275 13.504 50.61 14.908 C 51.129 15.308 51.696 15.641 52.298 15.899000000000001 C 56.313 17.937 58.546 20.489 58.707 25.379 C 58.784 27.897 57.816 29.479 56.558 31.293 L 56.558 31.346 L 56.884 31.346 L 56.884 32.69 L 57.557 31.533 C 57.486 31.515 57.421 31.476 57.373 31.421 C 57.325 31.365 57.295 31.296 57.288 31.223 C 57.284 31.178 57.289 31.134 57.303 31.091 C 57.318 31.049 57.34 31.01 57.37 30.976 C 57.4 30.943 57.437 30.917 57.477 30.898 C 57.518 30.88 57.562 30.87 57.607 30.869 L 57.872 30.869 L 57.872 32.997 L 58.141 33.23 L 57.841 33.52 L 47.337 33.516 Z M 47.448 2.292 C 47.473 2.442 47.537 2.584 47.633 2.702 C 47.729 2.821 47.854 2.9130000000000003 47.996 2.969 L 48.201 2.969 L 48.221 3.092 C 48.165 3.097 48.112 3.115 48.065 3.145 C 48.018 3.175 47.979 3.216 47.952 3.265 C 47.814 3.559 47.76 4.126 47.347 4.126 C 46.934 4.126 46.886 3.559 46.747 3.265 C 46.72 3.217 46.682 3.176 46.635 3.145 C 46.589 3.115 46.536 3.097 46.481 3.092 L 46.501 2.969 L 46.701 2.969 C 46.793 2.934 46.878 2.885 46.953 2.822 C 47.037 2.76 47.109 2.682 47.162 2.592 C 47.216 2.502 47.251 2.402 47.266 2.298 C 47.218 2.282 47.174 2.2560000000000002 47.137 2.222 C 47.099 2.187 47.07 2.145 47.051 2.098 C 47.038 2.058 46.99 2.055 46.933 2.048 L 46.933 1.975 L 47.057 1.975 C 47.073 1.911 47.111 1.855 47.163 1.815 C 47.216 1.775 47.28 1.754 47.346 1.755 C 47.413 1.7530000000000001 47.48 1.7730000000000001 47.534 1.8130000000000002 C 47.589 1.8530000000000002 47.628 1.9100000000000001 47.646 1.975 L 47.772 1.975 L 47.772 2.048 C 47.708 2.055 47.672 2.058 47.654 2.098 C 47.636 2.143 47.609 2.184 47.575 2.219 C 47.54 2.253 47.499 2.2800000000000002 47.454 2.298 L 47.448 2.292 Z M 39.129 23.124 C 39.213 23.508 40.188 24.251 40.178 25.375 C 40.05 26.162 39.701 26.897 39.172 27.494 C 38.694 26.843 38.39 26.081 38.288 25.279 C 38.261 24.155 39.051 23.508 39.129 23.124 Z M 47.082 22.934 C 46.951 23.334 45.697 24.055 45.72 25.219 C 45.75 26.303 46.736 27.05 47.015 27.45 C 47.301 27.05 48.283 26.303 48.31 25.219 C 48.34 24.055 47.204 23.334 47.083 22.934 L 47.082 22.934 Z M 50.025 23.041 C 49.904 23.441 48.73 24.132 48.74 25.279 C 48.77 26.336 49.719 27.107 49.957 27.494 C 50.216 27.107 51.257 26.4 51.279 25.343 C 51.306 24.196 50.132 23.443 50.025 23.043 L 50.025 23.041 Z M 52.998 23.08 C 52.874 23.48 51.629 24.261 51.656 25.412 C 51.68 26.496 52.688 27.16 52.924 27.567 C 53.527 26.992 53.925 26.235 54.057 25.412 C 54.084 24.261 53.102 23.484 52.998 23.08 Z M 44.255 23.48 C 43.723 23.943 43.391 24.593 43.327 25.295 C 43.404 26.044 43.738 26.743 44.272 27.273 C 44.849 26.759 45.23 26.059 45.348 25.295 C 45.361 24.414 44.83 23.957 44.386 23.314 C 44.345 23.372 44.301 23.428 44.255 23.481 L 44.255 23.48 Z M 57.649 23.228 C 57.578 23.598 56.822 24.265 56.839 25.353 C 56.917 26.1 57.186 26.814 57.619 27.428 C 58.041 26.81 58.303 26.097 58.382 25.353 C 58.307 24.597 58.056 23.869 57.649 23.228 Z M 55.524 23.128 C 55.44 23.512 54.431 24.222 54.441 25.346 C 54.468 26.39 55.295 27.11 55.487 27.497 C 55.998 26.856 56.332 26.092 56.455 25.282 C 56.482 24.158 55.604 23.511 55.524 23.127 L 55.524 23.128 Z M 41.68 23.07 C 41.798 23.477 42.743 24.187 42.719 25.341 C 42.587 26.177 42.203 26.954 41.619 27.566 C 41.042 26.982 40.671 26.225 40.563 25.411 C 40.536 24.26 41.572 23.476 41.683 23.069 L 41.68 23.07 Z M 47.322 8.313 C 47.033 8.296 46.878 8.063 46.791 7.7989999999999995 C 46.751 7.686 46.421 7.742 46.26 7.729 L 46.26 7.492 L 46.727 7.492 C 46.777 7.368 46.863 7.2620000000000005 46.975 7.189 C 47.086 7.115 47.217 7.078 47.351 7.081 C 47.484 7.084 47.614 7.128 47.721 7.207 C 47.829 7.286 47.91 7.396 47.954 7.522 L 48.454 7.529 L 48.454 7.729 C 48.282 7.746 47.943 7.672 47.906 7.786 C 47.815 8.046 47.62 8.326 47.318 8.31 L 47.322 8.313 Z M 47.342 9.287 C 47.243 9.277 47.148 9.239 47.07 9.178 C 46.991 9.116 46.932 9.034 46.898 8.94 C 46.878 8.883 46.807 8.870000000000001 46.72 8.86 L 46.72 8.75 L 46.908 8.75 C 46.931 8.649000000000001 46.987 8.559 47.068 8.494 C 47.148 8.43 47.249 8.394 47.352 8.394 C 47.455 8.394 47.556 8.43 47.636 8.494 C 47.717 8.559 47.773 8.649000000000001 47.796 8.75 L 47.984 8.75 L 47.984 8.86 C 47.893 8.870000000000001 47.826 8.883 47.806 8.94 C 47.77 9.036 47.707 9.12 47.625 9.181 C 47.543 9.243 47.444 9.28 47.342 9.287 Z M 47.349 0.705 C 47.393 0.8320000000000001 47.44 0.918 47.494 1.059 C 47.538 1.166 47.608 1.222 47.594 1.339 C 47.599 1.374 47.597 1.409 47.588 1.443 C 47.578 1.476 47.562 1.5070000000000001 47.539 1.534 C 47.516 1.561 47.488 1.5819999999999999 47.456 1.597 C 47.425 1.611 47.39 1.619 47.355 1.619 C 47.32 1.619 47.285 1.611 47.254 1.597 C 47.222 1.5819999999999999 47.194 1.561 47.171 1.534 C 47.148 1.5070000000000001 47.132 1.476 47.122 1.443 C 47.113 1.409 47.11 1.374 47.116 1.339 C 47.099 1.222 47.173 1.166 47.216 1.059 C 47.27 0.919 47.316 0.8320000000000001 47.354 0.705 L 47.349 0.705 Z M 47.327 6.929 C 46.816 6.782 46.365 6.395 46.365 5.9719999999999995 C 46.399 5.285 46.829 4.172 47.327 4.248 C 47.781 4.218 48.319 5.312 48.349 6.002 C 48.349 6.422 47.855 6.813 47.327 6.929 Z M 24.051 20.502 C 24.155 20.676 24.23 20.867 24.272 21.066 C 24.524 21.974 24.894 22.846 25.372 23.658 C 26.687 26.14 31.092 25.092 31.233 29.458 C 31.294 30.145 31.166 30.836 30.864 31.455 C 30.561 32.075 30.094 32.6 29.515 32.974 L 29.666 33.231 L 29.472 33.516 L 16.999 33.516 L 16.764 33.199 L 16.946 32.982 C 16.363 32.609 15.893 32.084 15.586 31.463 C 15.279 30.842 15.147 30.15 15.204 29.46 C 15.349 25.094 19.747 26.141 21.065 23.66 C 21.547 22.85 21.917 21.978 22.165 21.068 C 22.313 20.524 22.565 20.081 23.244 20.094 C 23.403 20.084 23.562 20.116 23.705 20.188 C 23.847 20.261 23.968 20.37 24.054 20.504 M 14.719 39.368 C 14.719 39.231 14.746 39.096 14.799 38.97 C 14.852 38.843 14.929 38.729 15.027 38.633 C 15.125 38.538 15.241 38.462 15.368 38.412 C 15.495 38.362 15.631 38.338 15.768 38.341 C 15.903 38.336 16.038 38.359 16.164 38.408 C 16.29 38.458 16.405 38.532 16.501 38.628 C 16.597 38.723 16.672 38.837 16.723 38.963 C 16.773 39.088 16.797 39.223 16.793 39.358 C 16.801 39.5 16.779 39.643 16.73 39.776 C 16.68 39.91 16.603 40.031 16.505 40.134 C 16.406 40.237 16.287 40.318 16.156 40.373 C 16.024 40.427 15.883 40.454 15.74 40.452 C 15.6 40.453 15.462 40.426 15.333 40.371 C 15.204 40.316 15.088 40.235 14.992 40.134 C 14.896 40.032 14.823 39.911 14.776 39.779 C 14.729 39.648 14.709 39.508 14.719 39.368 Z M 16.649 45.468 C 16.62 45.824 16.635 46.183 16.693 46.535 C 16.75 46.735 17.113 46.722 17.329 46.762 C 17.401 46.767 17.469 46.798 17.52 46.848 C 17.572 46.899 17.603 46.967 17.608 47.039 C 17.608 47.266 17.396 47.292 17.248 47.292 C 16.748 47.292 16.256 47.265 15.768 47.265 C 15.28 47.265 14.8 47.292 14.305 47.292 C 14.154 47.292 13.949 47.265 13.949 47.039 C 13.949 46.869 14.097 46.785 14.238 46.762 C 14.403 46.735 14.766 46.722 14.823 46.535 C 14.894 46.184 14.922 45.826 14.907 45.468 L 14.907 43.494 C 14.907 42.937 14.944 42.63 14.386 42.547 C 14.225 42.537 14.036 42.547 14.036 42.324 C 14.036 42.101 14.413 42.04 14.536 42.004 C 15.117 41.848 15.641 41.531 16.049 41.09 C 16.095 41.017 16.158 40.957 16.234 40.916 C 16.309 40.874 16.393 40.853 16.479 40.853 C 16.664 40.853 16.644 41.203 16.644 41.34 L 16.649 45.468 Z M 11.238 42.026 C 11.438 42.026 11.938 41.012 12.892 41.012 C 13.158 41.016 13.412 41.125 13.599 41.314 C 13.786999999999999 41.504 13.892 41.76 13.892 42.026 C 13.905 42.299 13.81 42.566 13.627 42.769 C 13.445 42.972 13.189 43.094 12.917 43.11 C 12.167 43.11 12.086 42.336 11.73 42.336 C 11.148 42.336 11.239 43.724 11.239 44.136 L 11.239 45.464 C 11.211 45.82 11.228 46.179 11.289 46.531 C 11.346 46.731 11.706 46.718 11.921 46.758 C 12.052 46.781 12.207 46.865 12.207 47.032 C 12.207 47.262 11.995 47.289 11.837 47.289 C 11.346 47.289 10.848 47.262 10.361 47.262 C 9.874 47.262 9.393 47.289 8.898 47.289 C 8.747 47.289 8.548 47.262 8.548 47.032 C 8.548 46.865 8.689 46.782 8.83 46.758 C 8.995 46.728 9.355 46.718 9.415 46.531 C 9.483 46.18 9.51 45.822 9.496 45.464 L 9.496 43.494 C 9.496 42.934 9.533 42.63 8.978 42.547 C 8.817 42.54 8.628 42.547 8.628 42.32 C 8.628 42.093 9.008 42.04 9.136 42.003 C 9.715 41.845 10.239 41.528 10.649000000000001 41.089 C 10.693999999999999 41.016 10.757 40.956 10.831 40.915 C 10.906 40.873 10.99 40.852 11.076 40.852 C 11.264 40.852 11.237 41.202 11.237 41.336 L 11.238 42.026 Z M 3.9619999999999997 45.396 C 3.9619999999999997 46.17 4.083 46.84 4.856 46.84 C 5.808 46.84 6.208 45.983 6.208 44.999 C 6.229 44.649 6.164 44.3 6.019 43.981 C 5.873 43.662 5.652 43.384 5.374 43.171 C 5.046 42.973 4.663 42.887 4.281 42.924 C 3.975 42.924 3.9619999999999997 43.111 3.9619999999999997 43.474 L 3.9619999999999997 45.396 Z M 3.9619999999999997 41.834 C 3.9619999999999997 42.408 3.9619999999999997 42.381 4.396 42.381 C 4.609 42.397 4.824 42.365 5.023 42.287 C 5.222 42.208 5.401 42.086 5.546 41.929 C 5.691 41.772 5.7989999999999995 41.584 5.861 41.379 C 5.924 41.175 5.939 40.958 5.906 40.747 C 5.927 40.563 5.909 40.377 5.855 40.2 C 5.801 40.023 5.711 39.859 5.592 39.717 C 5.472 39.576 5.325 39.461 5.159 39.379 C 4.993 39.296 4.812 39.249 4.627 39.239 C 4.407 39.226 4.191 39.298 4.022 39.439 C 3.922 39.562 3.961 39.893 3.961 40.086 L 3.9619999999999997 41.834 Z M 2.025 40.573 C 2.025 40.039 2.069 39.639 1.541 39.639 C 1.353 39.639 1.023 39.706 1.023 39.382 C 1.023 39.172 1.215 39.132 1.353 39.082 C 2.439 38.804 3.559 38.686 4.679 38.732 C 5.332 38.723 5.983 38.817 6.606 39.012 C 6.975 39.149 7.293 39.394 7.518 39.715 C 7.744 40.037 7.867 40.419 7.87 40.812 C 7.87 42.18 6.696 42.54 5.728 42.62 C 7.009 42.687 8.169 43.26 8.169 44.945 C 8.187 45.317 8.112 45.688 7.95 46.025 C 7.789 46.361 7.546 46.651 7.244 46.87 C 6.664 47.226 5.985 47.385 5.307 47.324 C 4.174 47.324 3.071 47.267 1.9609999999999999 47.267 C 1.729 47.267 1.52 47.324 1.2850000000000001 47.324 C 1.246 47.33 1.206 47.326 1.169 47.314 C 1.131 47.302 1.097 47.281 1.069 47.254 C 1.041 47.226 1.019 47.192 1.006 47.155 C 0.993 47.118 0.989 47.078 0.994 47.039 C 0.994 46.829 1.176 46.785 1.313 46.762 C 2.08 46.615 2.019 46.335 2.019 45.468 L 2.025 40.573 Z M 30.631 45.502 C 30.6 45.828 30.628 46.157 30.715 46.473 C 30.856 46.706 31.088 46.72 31.307 46.76 C 31.381 46.765 31.451 46.798 31.502 46.851 C 31.554 46.905 31.584 46.976 31.586 47.05 C 31.586 47.28 31.386 47.29 31.233 47.29 C 30.668 47.29 30.133 47.263 29.562 47.263 C 29.145 47.263 28.694 47.29 28.262 47.29 C 28.124 47.29 27.98 47.247 27.98 47.05 C 27.978 46.982 28 46.914 28.043 46.861 C 28.086 46.808 28.147 46.772 28.215 46.76 C 28.39 46.736 28.553 46.656 28.679 46.533 C 28.805 46.205 28.847 45.851 28.803 45.502 L 28.803 43.578 C 28.803 42.751 28.803 41.907 27.841 41.907 C 27.484 41.918 27.144 42.06 26.886 42.307 C 26.674 42.534 26.698 42.721 26.698 43.027 L 26.698 45.499 C 26.673 45.808 26.694 46.118 26.762 46.42 C 26.796 46.5 26.848 46.572 26.913 46.63 C 26.978 46.688 27.055 46.732 27.139 46.757 C 27.297 46.807 27.522 46.79 27.522 47.047 C 27.522 47.234 27.381 47.287 27.243 47.287 C 27.004 47.287 26.792 47.26 26.56 47.26 C 25.787 47.26 25.033 47.287 24.267 47.287 C 24.116 47.287 23.904 47.277 23.904 47.047 C 23.906 46.973 23.936 46.902 23.988 46.848 C 24.039 46.795 24.109 46.762 24.183 46.757 C 24.358 46.717 24.607 46.704 24.741 46.53 C 24.874 46.204 24.917 45.848 24.865 45.499 L 24.865 39.945 C 24.865 39.211 24.905 39.078 24.24 38.971 C 24.149 38.958 24.011 38.918 24.011 38.771 C 24.011 38.518 24.347 38.491 24.511 38.464 C 25.047 38.371 25.569 38.21 26.065 37.984 C 26.2 37.909 26.348 37.859 26.502 37.837 C 26.761 37.837 26.701999999999998 38.294 26.701999999999998 38.477 L 26.701999999999998 41.682 C 26.701999999999998 41.749 26.712 41.815 26.773 41.815 C 26.941 41.815 27.667 41.015 28.69 41.015 C 28.98 41.013 29.267 41.072 29.533 41.189 C 29.799 41.307 30.036 41.479 30.23 41.695 C 30.569 42.217 30.714 42.841 30.64 43.459 L 30.631 45.502 Z M 34.007 44.555 C 34.007 45.045 33.957 46.355 34.579 46.355 C 34.969 46.355 35.228 45.968 35.406 45.968 C 35.487 45.968 35.547 46.045 35.547 46.151 C 35.547 46.328 35.315 46.595 35.217 46.701 C 35.02 46.91 34.783 47.078 34.52 47.194 C 34.258 47.311 33.974 47.375 33.687 47.381 C 33.476 47.378 33.268 47.326 33.081 47.229 C 32.894 47.132 32.732 46.992 32.608 46.821 C 32.358 46.368 32.239 45.854 32.265 45.337 L 32.265 42.55 C 32.265 42.363 32.254 42.176 32.231 41.99 C 32.207 41.857 32.066 41.813 31.945 41.813 C 31.794 41.813 31.417 41.88 31.417 41.666 C 31.417 41.452 31.669 41.366 31.794 41.306 C 32.465 41.013 33.018 40.502 33.361 39.855 C 33.445 39.675 33.561 39.408 33.761 39.408 C 34.01 39.408 33.961 39.715 33.961 39.908 L 33.961 40.829 C 33.961 41.206 34.035 41.193 34.341 41.193 L 34.953 41.193 C 35.195 41.193 35.373 41.123 35.373 41.46 C 35.373 41.837 35.292 41.817 34.973 41.817 L 34.398 41.817 C 34.011 41.817 34.011 41.804 34.011 42.341 L 34.007 44.555 Z M 40.259 44.421 C 40.264 43.754 40.141 43.092 39.899 42.47 C 39.684 41.99 39.274 41.47 38.759 41.47 C 37.74 41.47 37.437 42.954 37.437 43.852 C 37.437 44.839 37.817 46.934 38.991 46.934 C 40.023 46.934 40.259 45.303 40.259 44.426 L 40.259 44.421 Z M 35.548 44.213 C 35.579 43.589 35.784 42.986 36.138 42.471 C 36.493 41.957 36.984 41.552 37.557 41.301 C 38.129 41.05 38.76 40.964 39.379 41.051 C 39.997 41.139 40.579 41.398 41.059 41.798 C 41.395 42.082 41.666 42.436 41.854 42.834 C 42.041 43.232 42.14 43.666 42.145 44.106 C 42.144 44.544 42.055 44.978 41.884 45.382 C 41.714 45.785 41.464 46.151 41.151 46.457 C 40.837 46.763 40.465 47.004 40.058 47.165 C 39.65 47.326 39.214 47.404 38.776 47.395 C 38.352 47.411 37.929 47.34 37.533 47.187 C 37.137 47.033 36.777 46.8 36.474 46.502 C 36.172 46.204 35.934 45.847 35.775 45.453 C 35.615 45.06 35.538 44.638 35.548 44.213 Z M 45.289 41.926 C 45.477 41.926 46.062 41.015 47.219 41.015 C 47.764 41.003 48.293 41.198 48.699 41.562 C 48.9 41.786 49.048 42.053 49.131 42.343 C 49.214 42.632 49.231 42.936 49.18 43.233 L 49.18 45.468 C 49.133 45.828 49.175 46.194 49.301 46.535 C 49.419 46.708 49.671 46.722 49.852 46.762 C 49.926 46.767 49.996 46.8 50.048 46.853 C 50.099 46.907 50.129 46.978 50.131 47.052 C 50.131 47.282 49.923 47.292 49.768 47.292 C 49.341 47.292 48.944 47.265 48.524 47.265 C 47.979 47.265 47.441 47.292 46.903 47.292 C 46.768 47.292 46.631 47.252 46.631 47.052 C 46.629 46.984 46.651 46.917 46.694 46.864 C 46.736 46.811 46.796 46.775 46.863 46.762 C 46.963 46.749 47.059 46.716 47.145 46.664 C 47.231 46.613 47.305 46.544 47.363 46.462 C 47.448 46.136 47.475 45.798 47.444 45.462 L 47.444 43.497 C 47.459 43.1 47.391 42.705 47.244 42.336 C 47.167 42.191 47.052 42.07 46.911 41.985 C 46.77 41.901 46.609 41.856 46.444 41.856 C 46.112 41.873 45.796 42.009 45.556 42.24 C 45.243 42.547 45.287 42.83 45.287 43.287 L 45.287 45.465 C 45.255 45.801 45.282 46.139 45.368 46.465 C 45.426 46.546 45.5 46.614 45.585 46.665 C 45.669 46.717 45.764 46.751 45.862 46.765 C 45.929 46.778 45.99 46.814 46.033 46.867 C 46.076 46.92 46.099 46.987 46.097 47.055 C 46.097 47.255 45.956 47.295 45.828 47.295 C 45.287 47.295 44.749 47.268 44.207 47.268 C 43.783 47.268 43.383 47.295 42.959 47.295 C 42.808 47.295 42.596 47.285 42.596 47.055 C 42.6 46.981 42.631 46.91 42.683 46.857 C 42.735 46.804 42.804 46.771 42.878 46.765 C 43.056 46.725 43.315 46.712 43.433 46.538 C 43.554 46.196 43.594 45.831 43.551 45.471 L 43.551 43.497 C 43.551 42.937 43.585 42.63 43.033 42.546 C 42.865 42.536 42.68 42.546 42.68 42.319 C 42.68 42.092 43.057 42.039 43.18 42.002 C 43.76 41.845 44.285 41.529 44.693 41.088 C 44.738 41.015 44.801 40.955 44.876 40.914 C 44.951 40.872 45.035 40.851 45.12 40.851 C 45.305 40.851 45.281 41.198 45.281 41.338 L 45.289 41.926 Z M 57.994 41.483 C 58.214 41.226 58.324 40.893 58.303 40.556 C 58.303 39.956 57.953 39.198 57.365 39.198 C 57.269 39.2 57.175 39.223 57.088 39.264 C 57.001 39.306 56.924 39.365 56.862 39.438 C 56.799 39.511 56.753 39.596 56.725 39.688 C 56.698 39.78 56.69 39.877 56.703 39.972 C 56.799 40.558 57.064 41.102 57.466 41.539 C 57.506 41.579 57.574 41.699 57.631 41.699 C 57.772 41.669 57.899 41.595 57.994 41.486 L 57.994 41.483 Z M 56.188 43.17 C 56.154 43.11 56.131 43.07 56.07 43.07 C 55.97 43.07 55.737 43.31 55.67 43.39 C 55.439 43.668 55.315 44.02 55.32 44.381 C 55.292 44.84 55.443 45.291 55.742 45.64 C 56.04 45.989 56.463 46.209 56.92 46.252 C 57.256 46.247 57.581 46.128 57.841 45.915 C 57.898 45.862 58.073 45.728 58.073 45.621 C 58.073 45.551 57.949 45.421 57.922 45.381 L 56.188 43.17 Z M 60.748 45.932 C 61.074 46.372 61.266 46.656 61.767 46.749 C 61.935 46.776 62.147 46.799 62.147 47.039 C 62.147 47.306 61.888 47.323 61.71 47.323 C 61.3 47.323 60.866 47.24 60.446 47.24 C 60.19 47.24 59.928 47.25 59.652 47.267 C 59.339 47.284 59.282 47.177 59.094 46.91 L 58.681 46.339 C 58.654 46.302 58.493 46.062 58.436 46.062 C 58.379 46.062 58.342 46.125 58.305 46.152 C 58.028 46.548 57.661 46.873 57.234 47.101 C 56.808 47.329 56.333 47.453 55.85 47.463 C 55.541 47.477 55.232 47.427 54.943 47.316 C 54.654 47.205 54.391 47.036 54.171 46.819 C 53.95 46.602 53.777 46.342 53.661 46.055 C 53.545 45.768 53.49 45.46 53.499 45.151 C 53.499 43.76 54.541 43.203 55.53 42.773 C 55.604 42.746 55.769 42.68 55.769 42.586 C 55.769 42.416 54.969 41.595 54.969 40.621 C 54.969 40.336 55.038 40.056 55.171 39.804 C 55.304 39.553 55.497 39.337 55.732 39.177 C 56.238 38.857 56.829 38.699 57.427 38.723 C 58.352 38.723 59.845 38.953 59.845 40.354 C 59.852 40.599 59.792 40.842 59.673 41.056 C 59.553 41.27 59.378 41.448 59.166 41.571 C 58.837 41.785 58.474 41.942 58.093 42.035 C 58.046 42.048 57.955 42.092 57.955 42.158 C 57.999 42.256 58.057 42.347 58.127 42.428 L 59.281 43.925 C 59.311 43.968 59.375 44.045 59.415 44.045 C 59.687 43.769 59.875 43.423 59.96 43.045 C 59.96 42.802 59.66 42.778 59.513 42.751 C 59.366 42.724 59.113 42.734 59.113 42.484 C 59.113 42.204 59.406 42.227 59.584 42.227 L 61.681 42.227 C 61.826 42.227 62.021 42.254 62.021 42.471 C 62.021 42.708 61.809 42.734 61.651 42.751 C 61.345 42.766 61.057 42.902 60.851 43.128 C 60.439 43.556 60.086 44.037 59.802 44.559 C 59.802 44.659 59.96 44.836 60.002 44.903 L 60.748 45.932 Z M 70.987 42.546 C 71.387 42.546 71.374 42.563 71.374 42.066 L 71.374 40.772 C 71.374 39.958 71.445 39.615 70.695 39.464 C 70.55 39.434 70.318 39.421 70.318 39.194 C 70.318 38.984 70.429 38.944 70.597 38.944 C 71.212 38.944 71.797 38.997 72.406 38.997 C 72.971 38.997 73.536 38.944 74.091 38.944 C 74.252 38.944 74.384 38.984 74.384 39.194 C 74.384 39.404 74.192 39.434 74.051 39.464 C 73.251 39.614 73.315 39.878 73.315 40.772 L 73.315 45.515 C 73.315 46.306 73.271 46.629 74.008 46.759 C 74.163 46.782 74.385 46.826 74.385 47.066 C 74.385 47.266 74.254 47.32 74.103 47.32 C 73.488 47.32 72.903 47.263 72.29 47.263 C 71.725 47.263 71.163 47.32 70.599 47.32 C 70.431 47.32 70.32 47.263 70.32 47.066 C 70.32 46.853 70.495 46.782 70.636 46.759 C 71.413 46.612 71.376 46.382 71.376 45.515 L 71.376 43.474 C 71.359 43.11 71.339 43.154 71.023 43.154 L 68.925 43.154 C 68.434 43.154 68.468 43.097 68.468 43.644 L 68.468 45.515 C 68.468 46.306 68.424 46.629 69.168 46.759 C 69.319 46.782 69.541 46.826 69.541 47.066 C 69.541 47.266 69.41 47.32 69.259 47.32 C 68.65 47.32 68.059 47.263 67.45 47.263 C 66.888 47.263 66.32 47.32 65.759 47.32 C 65.594 47.32 65.477 47.263 65.477 47.066 C 65.477 46.853 65.652 46.782 65.793 46.759 C 66.57 46.612 66.536 46.382 66.536 45.515 L 66.536 40.772 C 66.536 39.958 66.603 39.615 65.853 39.464 C 65.708 39.434 65.476 39.421 65.476 39.194 C 65.476 38.984 65.594 38.944 65.758 38.944 C 66.367 38.944 66.958 38.997 67.571 38.997 C 68.136 38.997 68.694 38.944 69.246 38.944 C 69.411 38.944 69.546 38.984 69.546 39.194 C 69.546 39.404 69.361 39.434 69.22 39.464 C 68.42 39.614 68.477 39.878 68.477 40.772 L 68.477 42.066 C 68.477 42.546 68.487 42.546 68.901 42.546 L 70.987 42.546 Z M 79.401 44.421 C 79.408 43.753 79.284 43.091 79.038 42.47 C 78.83 41.99 78.416 41.47 77.898 41.47 C 76.886 41.47 76.576 42.954 76.576 43.852 C 76.576 44.839 76.959 46.934 78.13 46.934 C 79.166 46.934 79.401 45.303 79.401 44.426 L 79.401 44.421 Z M 74.686 44.213 C 74.717 43.589 74.922 42.985 75.277 42.47 C 75.632 41.956 76.124 41.55 76.696 41.3 C 77.269 41.049 77.9 40.962 78.52 41.051 C 79.139 41.139 79.721 41.397 80.201 41.798 C 80.536 42.083 80.806 42.436 80.992 42.835 C 81.178 43.233 81.276 43.666 81.28 44.106 C 81.279 44.544 81.192 44.978 81.022 45.381 C 80.851 45.785 80.603 46.151 80.289 46.457 C 79.976 46.763 79.605 47.004 79.198 47.165 C 78.79 47.326 78.355 47.404 77.917 47.395 C 77.492 47.411 77.069 47.34 76.673 47.187 C 76.277 47.033 75.916 46.8 75.613 46.502 C 75.311 46.204 75.072 45.847 74.912 45.454 C 74.753 45.06 74.675 44.638 74.685 44.213 M 86.053 43.083 C 86.191 42.788 86.278 42.473 86.312 42.149 C 86.312 41.802 86.03 41.722 85.781 41.679 C 85.633 41.656 85.394 41.679 85.394 41.425 C 85.394 41.387 85.402 41.35 85.418 41.315 C 85.433 41.281 85.456 41.25 85.485 41.225 C 85.513 41.2 85.546 41.182 85.582 41.17 C 85.619 41.159 85.657 41.156 85.694 41.161 C 86.047 41.161 86.383 41.188 86.74 41.188 C 87.076 41.188 87.433 41.161 87.772 41.161 C 87.927 41.161 88.102 41.188 88.102 41.398 C 88.1 41.47 88.071 41.538 88.022 41.59 C 87.972 41.641 87.905 41.673 87.833 41.678 C 87.366 41.778 87.268 41.721 87.033 42.278 L 85.106 46.848 C 84.955 47.205 84.921 47.382 84.541 47.382 C 84.201 47.382 84.195 47.192 84.057 46.875 L 82.306 42.643 C 82.208 42.396 82.094 42.156 81.966 41.923 C 81.865 41.793 81.719 41.707 81.556 41.68 C 81.391 41.64 81.179 41.667 81.179 41.426 C 81.179 41.185 81.398 41.162 81.572 41.162 C 82.023 41.162 82.493 41.189 82.964 41.189 C 83.482 41.189 84 41.162 84.501 41.162 C 84.656 41.162 84.878 41.162 84.878 41.399 C 84.878 41.656 84.619 41.666 84.454 41.679 C 84.289 41.692 84.077 41.766 84.077 41.989 C 84.101 42.156 84.149 42.319 84.218 42.473 L 85.032 44.604 C 85.059 44.671 85.16 44.998 85.251 44.998 C 85.322 44.998 85.419 44.698 85.429 44.648 L 86.053 43.083 Z M 91.591 42.977 C 91.907 42.9 92.021 42.643 92.021 42.31 C 92.031 42.204 92.019 42.097 91.985 41.995 C 91.952 41.894 91.898 41.801 91.826 41.721 C 91.755 41.642 91.668 41.578 91.57 41.535 C 91.473 41.491 91.368 41.467 91.261 41.466 C 91.075 41.471 90.893 41.517 90.726 41.601 C 90.56 41.684 90.414 41.804 90.299 41.95 C 90.112 42.214 89.998 42.522 89.969 42.844 C 89.969 43.084 90.181 43.054 90.352 43.054 C 90.766 43.067 91.18 43.042 91.589 42.977 L 91.591 42.977 Z M 90.257 43.551 C 89.968 43.551 89.85 43.511 89.85 43.888 C 89.85 45.182 90.613 46.463 91.881 46.463 C 92.775 46.463 93.155 45.763 93.431 45.763 C 93.456 45.764 93.481 45.77 93.504 45.781 C 93.527 45.791 93.547 45.806 93.564 45.825 C 93.581 45.844 93.594 45.865 93.602 45.889 C 93.611 45.913 93.615 45.938 93.613 45.963 C 93.613 46.23 93.176 46.593 93.001 46.713 C 92.443 47.143 91.759 47.377 91.054 47.38 C 90.635 47.372 90.223 47.28 89.84 47.11 C 89.457 46.941 89.112 46.696 88.824 46.392 C 88.537 46.087 88.313 45.728 88.166 45.336 C 88.019 44.944 87.951 44.527 87.967 44.108 C 87.97 43.693 88.055 43.283 88.218 42.901 C 88.381 42.52 88.618 42.175 88.916 41.886 C 89.214 41.597 89.567 41.371 89.953 41.22 C 90.34 41.07 90.752 40.997 91.167 41.008 C 91.815 41.002 92.443 41.224 92.943 41.635 C 93.159 41.802 93.337 42.013 93.463 42.255 C 93.59 42.496 93.662 42.763 93.676 43.035 C 93.676 43.529 93.417 43.542 93.014 43.542 L 90.257 43.551 Z M 51.222 56.566 C 51.225 55.898 51.1 55.236 50.855 54.615 C 50.643 54.135 50.233 53.615 49.718 53.615 C 48.699 53.615 48.4 55.099 48.4 55.997 C 48.4 56.981 48.773 59.076 49.954 59.076 C 50.986 59.076 51.222 57.448 51.222 56.568 L 51.222 56.566 Z M 46.507 56.358 C 46.526 55.494 46.886 54.673 47.508 54.073 C 48.131 53.474 48.965 53.145 49.829 53.158 C 50.629 53.144 51.407 53.419 52.021 53.932 C 52.356 54.218 52.626 54.572 52.812 54.971 C 52.998 55.37 53.097 55.804 53.101 56.244 C 53.102 56.682 53.015 57.116 52.845 57.52 C 52.676 57.923 52.427 58.289 52.114 58.596 C 51.801 58.902 51.43 59.143 51.023 59.304 C 50.615 59.465 50.18 59.543 49.742 59.533 C 49.318 59.551 48.894 59.481 48.498 59.329 C 48.101 59.176 47.74 58.944 47.437 58.646 C 47.134 58.349 46.895 57.992 46.735 57.598 C 46.575 57.205 46.498 56.783 46.507 56.358 Z">
  </path>
</svg>

